<svg id="Layer_1" xmlns="http://www.w3.org/2000/svg" viewBox="0 0 500 500"><style>.st0{fill:url(#SVGID_1_)}</style><linearGradient id="SVGID_1_" gradientUnits="userSpaceOnUse" x1="500" x2="0" y2="500"><stop offset="0" stop-color="#43cea2"/><stop offset="1" stop-color="#185a9d"/></linearGradient><path class="st0" d="M355.2 318.6c0 34.3-25.3 58.7-62.1 58.7H144.8v-117h148.3c36.8 0 62.1 24 62.1 58.3zm-21.4-136.3c0-35.6-24.9-59.6-62.1-59.6H144.8V238h129.4c36.4 0 59.6-21.9 59.6-55.7zM500 0v500H0V0h500zM379.2 320.7c0-40.3-27-67.3-62.1-74.6 24-11.1 40.7-33 40.7-65.6 0-45.9-33.9-80.6-85.3-80.6H120.8v300h173.1c47.2.1 85.3-30.8 85.3-79.2z"/></svg>